<svg preserveAspectRatio="xMinYMin meet" viewBox="0 0 200 200" fill="none" xmlns="http://www.w3.org/2000/svg">
<rect x="5" y="57" width="65" height="87" fill="black"/>
<path d="M5 100.5L106.25 18.6606L106.25 182.339L5 100.5Z" fill="black"/>
<path d="M122.5 134C129.263 134 135.749 130.471 140.531 124.188C145.313 117.906 148 109.385 148 100.5C148 91.6153 145.313 83.0944 140.531 76.8119C135.749 70.5295 129.263 67 122.5 67L122.5 100.5L122.5 134Z" fill="black"/>
<path d="M121 185C140.891 185 159.968 176.15 174.033 160.397C188.098 144.644 196 123.278 196 101C196 78.7218 188.098 57.3561 174.033 41.603C159.968 25.85 140.891 17 121 17L121 41.7502C135.03 41.7502 148.486 47.9926 158.407 59.1041C168.328 70.2156 173.902 85.286 173.902 101C173.902 116.714 168.328 131.784 158.407 142.896C148.486 154.007 135.03 160.25 121 160.25L121 185Z" fill="black"/>
</svg>
